<svg xmlns="http://www.w3.org/2000/svg" width="1024" height="1024" viewBox="0 0 1024 1024">
<g>
<path d="M 93.82 1022.50 C98.95,1023.37 296.10,1023.89 497.47,1024.00 L 0.00 1024.00 L 0.00 0.00 L 331.23 0.00 C200.18,0.23 98.46,0.71 94.00,1.46 C79.88,3.82 65.19,9.56 52.78,17.55 C26.04,34.77 6.90,63.30 1.49,94.03 C0.19,101.44 0.00,153.59 0.00,512.15 C0.00,910.76 0.05,922.06 1.90,931.26 C9.06,966.84 31.46,996.30 63.50,1012.27 C74.34,1017.67 83.52,1020.77 93.82,1022.50 ZM 647.59 1024.00 C799.24,1023.91 923.85,1023.55 928.23,1022.87 C943.66,1020.48 962.73,1012.63 975.87,1003.27 C994.97,989.66 1011.33,967.41 1018.42,945.39 C1019.02,943.53 1019.56,942.18 1020.04,940.80 C1023.47,930.98 1023.95,920.12 1024.00,712.62 L 1024.00 1024.00 L 647.59 1024.00 ZM 1024.00 529.09 C1024.00,523.61 1024.00,518.05 1024.00,512.42 C1024.00,115.16 1023.95,103.04 1022.10,92.92 C1013.73,46.88 975.70,9.12 930.00,1.46 C925.54,0.71 823.82,0.23 692.77,0.00 L 1024.00 0.00 L 1024.00 529.09 Z" fill="rgb(10,3,2)"/>
<path d="M 93.82 1022.50 C83.52,1020.77 74.34,1017.67 63.50,1012.27 C31.46,996.30 9.06,966.84 1.90,931.26 C0.05,922.06 0.00,910.76 0.00,512.15 C0.00,153.59 0.19,101.44 1.49,94.03 C6.90,63.30 26.04,34.77 52.78,17.55 C65.19,9.56 79.88,3.82 94.00,1.46 C98.46,0.71 200.18,0.23 331.23,0.00 L 692.77 0.00 C823.82,0.23 925.54,0.71 930.00,1.46 C975.70,9.12 1013.73,46.88 1022.10,92.92 C1023.95,103.04 1024.00,115.16 1024.00,512.42 C1024.00,518.05 1024.00,523.61 1024.00,529.09 L 1024.00 712.62 C1023.95,920.12 1023.47,930.98 1020.04,940.80 C1019.56,942.18 1019.02,943.53 1018.42,945.39 C1011.33,967.41 994.97,989.66 975.87,1003.27 C962.73,1012.63 943.66,1020.48 928.23,1022.87 C923.85,1023.55 799.24,1023.91 647.59,1024.00 L 497.47 1024.00 C296.10,1023.89 98.95,1023.37 93.82,1022.50 ZM 497.00 884.16 C506.62,888.37 511.36,889.94 513.50,889.63 C517.75,889.01 535.47,881.33 556.50,870.99 C632.89,833.43 691.88,783.44 733.47,721.00 C766.75,671.04 785.84,618.63 794.67,553.00 C796.16,541.94 796.39,524.99 796.72,405.77 C796.99,308.44 796.78,269.88 795.97,266.88 C793.81,258.88 788.51,254.92 770.00,247.46 C721.55,227.94 621.55,187.51 594.50,176.50 C537.50,153.30 514.00,144.00 512.34,144.00 C510.93,144.00 496.34,149.71 462.50,163.49 C458.10,165.29 441.23,172.16 425.00,178.77 C391.99,192.22 359.17,205.48 291.50,232.70 C234.46,255.64 235.36,255.21 231.25,261.36 L 228.00 266.23 L 228.00 400.01 C228.00,485.05 228.38,537.56 229.04,544.14 C237.46,628.22 268.76,700.68 323.57,763.00 C367.04,812.42 424.12,852.30 497.00,884.16 ZM 487.00 760.05 C487.00,792.47 486.66,819.00 486.25,818.99 C485.11,818.98 460.85,805.63 448.99,798.49 C424.65,783.84 399.26,764.13 378.19,743.55 L 363.56 729.26 L 368.92 728.11 C375.70,726.66 386.75,720.89 390.78,716.71 C399.92,707.22 405.12,692.00 403.20,680.37 C401.73,671.54 398.01,663.95 392.05,657.65 L 387.00 652.31 L 387.00 520.65 C387.00,446.52 387.38,389.00 387.87,389.00 C388.35,389.00 396.12,395.64 405.13,403.75 C414.15,411.86 434.12,429.79 449.51,443.58 C464.90,457.38 486.50,476.73 497.50,486.59 C514.06,501.43 536.23,521.09 592.36,570.71 C595.03,573.07 597.62,575.00 598.11,575.00 C598.62,575.00 599.00,536.50 599.00,483.66 L 599.00 392.32 L 537.00 336.81 L 537.00 275.91 C537.00,222.84 537.19,215.00 538.48,215.00 C539.29,215.00 548.18,218.33 558.23,222.39 C568.28,226.46 594.05,236.86 615.50,245.50 C677.98,270.67 737.19,294.92 741.75,297.21 L 744.00 298.34 L 744.00 412.42 C743.99,484.12 743.60,530.77 742.94,538.00 C737.59,596.62 717.33,652.65 684.73,699.00 L 678.50 707.85 L 678.25 543.22 L 677.99 378.60 L 682.75 374.42 C704.68,355.12 700.43,320.26 674.50,306.65 C668.78,303.65 667.96,303.50 657.00,303.50 C646.22,303.50 645.09,303.69 639.00,306.59 C630.81,310.48 624.07,316.99 619.82,325.15 C616.62,331.27 616.50,331.92 616.50,343.00 C616.50,353.53 616.73,354.97 619.26,360.12 C622.51,366.73 628.65,374.00 633.53,377.02 L 637.00 379.16 L 637.00 520.91 C637.00,598.88 636.72,662.95 636.37,663.30 C636.02,663.64 632.31,660.86 628.12,657.12 C623.93,653.38 613.75,644.31 605.50,636.97 C597.25,629.64 576.59,611.23 559.58,596.07 C542.57,580.90 525.87,566.03 522.45,563.00 C519.03,559.97 502.16,544.90 484.96,529.50 C467.76,514.10 451.40,499.53 448.59,497.11 C445.79,494.70 439.85,489.41 435.39,485.36 C430.92,481.31 426.98,478.00 426.63,478.00 C426.28,478.00 426.10,515.67 426.24,561.71 L 426.50 645.42 L 456.75 673.26 L 487.00 701.11 ZM 325.40 666.25 C324.06,668.86 322.76,671.00 322.52,671.00 C322.27,671.00 321.54,669.99 320.90,668.75 C320.25,667.51 318.41,664.12 316.81,661.22 C315.21,658.31 311.44,650.27 308.42,643.35 C292.41,606.65 283.74,570.65 281.05,529.77 C280.24,517.34 280.15,404.35 280.89,312.41 L 281.00 298.32 L 283.75 297.03 C285.26,296.31 291.67,293.60 298.00,291.00 C304.33,288.40 320.08,281.89 333.00,276.54 C345.92,271.18 375.40,259.22 398.50,249.96 C421.60,240.69 450.51,229.04 462.75,224.06 C474.99,219.08 485.45,215.00 485.99,215.00 C486.64,215.00 487.08,239.70 487.24,285.74 L 487.50 356.48 L 507.00 373.86 C517.72,383.42 530.33,394.63 535.00,398.77 C539.67,402.92 545.86,408.51 548.75,411.21 L 554.00 416.11 L 554.00 473.14 L 551.14 470.82 C549.57,469.55 544.03,464.67 538.84,460.00 C533.65,455.33 512.14,435.98 491.04,417.00 C452.36,382.22 448.85,379.07 407.52,342.13 C393.62,329.71 382.93,320.94 380.11,319.66 C376.85,318.17 373.45,317.55 368.50,317.53 C356.71,317.49 347.81,322.50 342.45,332.18 L 339.50 337.50 L 339.00 494.82 C338.50,650.85 338.48,652.15 336.50,653.24 C333.22,655.05 327.99,661.18 325.40,666.25 ZM 549.53 813.58 C542.82,817.11 537.03,820.00 536.67,820.00 C536.30,820.00 536.00,789.09 536.00,751.30 L 536.00 682.61 L 531.51 678.55 C529.04,676.32 514.42,662.80 499.03,648.50 L 471.03 622.50 L 471.02 601.75 C471.01,590.25 471.40,581.00 471.89,581.00 C472.38,581.00 481.49,588.80 492.14,598.34 C536.15,637.76 555.84,655.35 601.75,696.24 C628.29,719.87 650.00,739.57 650.00,740.01 C650.00,741.19 634.06,755.97 622.42,765.56 C602.18,782.26 574.91,800.23 549.53,813.58 Z" fill="rgb(228,75,5)"/>
<path d="M 497.00 884.16 C424.12,852.30 367.04,812.42 323.57,763.00 C268.76,700.68 237.46,628.22 229.04,544.14 C228.38,537.56 228.00,485.05 228.00,400.01 L 228.00 266.23 L 231.25 261.36 C235.36,255.21 234.46,255.64 291.50,232.70 C359.17,205.48 391.99,192.22 425.00,178.77 C441.23,172.16 458.10,165.29 462.50,163.49 C496.34,149.71 510.93,144.00 512.34,144.00 C514.00,144.00 537.50,153.30 594.50,176.50 C621.55,187.51 721.55,227.94 770.00,247.46 C788.51,254.92 793.81,258.88 795.97,266.88 C796.78,269.88 796.99,308.44 796.72,405.77 C796.39,524.99 796.16,541.94 794.67,553.00 C785.84,618.63 766.75,671.04 733.47,721.00 C691.88,783.44 632.89,833.43 556.50,870.99 C535.47,881.33 517.75,889.01 513.50,889.63 C511.36,889.94 506.62,888.37 497.00,884.16 ZM 549.53 813.58 C574.91,800.23 602.18,782.26 622.42,765.56 C634.06,755.97 650.00,741.19 650.00,740.01 C650.00,739.57 628.29,719.87 601.75,696.24 C555.84,655.35 536.15,637.76 492.14,598.34 C481.49,588.80 472.38,581.00 471.89,581.00 C471.40,581.00 471.01,590.25 471.02,601.75 L 471.03 622.50 L 499.03 648.50 C514.42,662.80 529.04,676.32 531.51,678.55 L 536.00 682.61 L 536.00 751.30 C536.00,789.09 536.30,820.00 536.67,820.00 C537.03,820.00 542.82,817.11 549.53,813.58 ZM 487.00 760.05 L 487.00 701.11 L 456.75 673.26 L 426.50 645.42 L 426.24 561.71 C426.10,515.67 426.28,478.00 426.63,478.00 C426.98,478.00 430.92,481.31 435.39,485.36 C439.85,489.41 445.79,494.70 448.59,497.11 C451.40,499.53 467.76,514.10 484.96,529.50 C502.16,544.90 519.03,559.97 522.45,563.00 C525.87,566.03 542.57,580.90 559.58,596.07 C576.59,611.23 597.25,629.64 605.50,636.97 C613.75,644.31 623.93,653.38 628.12,657.12 C632.31,660.86 636.02,663.64 636.37,663.30 C636.72,662.95 637.00,598.88 637.00,520.91 L 637.00 379.16 L 633.53 377.02 C628.65,374.00 622.51,366.73 619.26,360.12 C616.73,354.97 616.50,353.53 616.50,343.00 C616.50,331.92 616.62,331.27 619.82,325.15 C624.07,316.99 630.81,310.48 639.00,306.59 C645.09,303.69 646.22,303.50 657.00,303.50 C667.96,303.50 668.78,303.65 674.50,306.65 C700.43,320.26 704.68,355.12 682.75,374.42 L 677.99 378.60 L 678.25 543.22 L 678.50 707.85 L 684.73 699.00 C717.33,652.65 737.59,596.62 742.94,538.00 C743.60,530.77 743.99,484.12 744.00,412.42 L 744.00 298.34 L 741.75 297.21 C737.19,294.92 677.98,270.67 615.50,245.50 C594.05,236.86 568.28,226.46 558.23,222.39 C548.18,218.33 539.29,215.00 538.48,215.00 C537.19,215.00 537.00,222.84 537.00,275.91 L 537.00 336.81 L 568.00 364.56 L 599.00 392.32 L 599.00 483.66 C599.00,536.50 598.62,575.00 598.11,575.00 C597.62,575.00 595.03,573.07 592.36,570.71 C536.23,521.09 514.06,501.43 497.50,486.59 C486.50,476.73 464.90,457.38 449.51,443.58 C434.12,429.79 414.15,411.86 405.13,403.75 C396.12,395.64 388.35,389.00 387.87,389.00 C387.38,389.00 387.00,446.52 387.00,520.65 L 387.00 652.31 L 392.05 657.65 C398.01,663.95 401.73,671.54 403.20,680.37 C405.12,692.00 399.92,707.22 390.78,716.71 C386.75,720.89 375.70,726.66 368.92,728.11 L 363.56 729.26 L 378.19 743.55 C399.26,764.13 424.65,783.84 448.99,798.49 C460.85,805.63 485.11,818.98 486.25,818.99 C486.66,819.00 487.00,792.47 487.00,760.05 ZM 325.40 666.25 C327.99,661.18 333.22,655.05 336.50,653.24 C338.48,652.15 338.50,650.85 339.00,494.82 L 339.50 337.50 L 342.45 332.18 C347.81,322.50 356.71,317.49 368.50,317.53 C373.45,317.55 376.85,318.17 380.11,319.66 C382.93,320.94 393.62,329.71 407.52,342.13 C448.85,379.07 452.36,382.22 491.04,417.00 C512.14,435.98 533.65,455.33 538.84,460.00 C544.03,464.67 549.57,469.55 551.14,470.82 L 554.00 473.14 L 554.00 444.63 L 554.00 416.11 L 548.75 411.21 C545.86,408.51 539.67,402.92 535.00,398.77 C530.33,394.63 517.72,383.42 507.00,373.86 L 487.50 356.48 L 487.24 285.74 C487.08,239.70 486.64,215.00 485.99,215.00 C485.45,215.00 474.99,219.08 462.75,224.06 C450.51,229.04 421.60,240.69 398.50,249.96 C375.40,259.22 345.92,271.18 333.00,276.54 C320.08,281.89 304.33,288.40 298.00,291.00 C291.67,293.60 285.26,296.31 283.75,297.03 L 281.00 298.32 L 280.89 312.41 C280.15,404.35 280.24,517.34 281.05,529.77 C283.74,570.65 292.41,606.65 308.42,643.35 C311.44,650.27 315.21,658.31 316.81,661.22 C318.41,664.12 320.25,667.51 320.90,668.75 C321.54,669.99 322.27,671.00 322.52,671.00 C322.76,671.00 324.06,668.86 325.40,666.25 Z" fill="rgb(252,252,251)"/>
</g>
</svg>